<svg width="36" height="74" viewBox="0 0 36 74" fill="none" xmlns="http://www.w3.org/2000/svg">
<path d="M19.3392 74H16.1235V77.2157H19.3392V74ZM19.3392 16.8512H22.5549V11.5689L17.8625 13.9947L19.3392 16.8512ZM6.29559 23.5941L3.37668 24.9434L4.78686 27.994L7.77229 26.4507L6.29559 23.5941ZM0.879167 11.877L-0.569858 9.00625L-3.34335 10.4062L-2.03974 13.2263L0.879167 11.877ZM24.0924 0.1598V-3.05589H23.3268L22.6434 -2.71091L24.0924 0.1598ZM35.3674 0.1598H38.5831V-3.05589H35.3674V0.1598ZM35.3674 74V77.2157H38.5831V74H35.3674ZM22.5549 74V16.8512H16.1235V74H22.5549ZM17.8625 13.9947L4.81889 20.7375L7.77229 26.4507L20.8159 19.7078L17.8625 13.9947ZM9.21449 22.2448L3.79807 10.5277L-2.03974 13.2263L3.37668 24.9434L9.21449 22.2448ZM2.32819 14.7477L25.5414 3.03051L22.6434 -2.71091L-0.569858 9.00625L2.32819 14.7477ZM24.0924 3.37549H35.3674V-3.05589H24.0924V3.37549ZM32.1517 0.1598V74H38.5831V0.1598H32.1517ZM35.3674 70.7843H19.3392V77.2157H35.3674V70.7843Z" fill="url(#paint0_linear_344_110)"/>
<defs>
<linearGradient id="paint0_linear_344_110" x1="21" y1="-26" x2="21" y2="85.1241" gradientUnits="userSpaceOnUse">
<stop offset="0.6875" stop-color="#E0623F"/>
<stop offset="0.933187" stop-color="#E0623F" stop-opacity="0"/>
</linearGradient>
</defs>
</svg>
