<svg width="54" height="75" viewBox="0 0 54 75" fill="none" xmlns="http://www.w3.org/2000/svg">
<path d="M0.089951 75H-3.12574V78.2157H0.089951V75ZM0.089951 61.7353L-2.08337 59.3652L-3.12574 60.321V61.7353H0.089951ZM29.3828 34.8743L27.2768 32.4442L27.2427 32.4737L27.2095 32.5042L29.3828 34.8743ZM34.136 29.1262L31.3047 27.6017L31.2816 27.6446L31.2598 27.6881L34.136 29.1262ZM34.2466 18.0723L36.9808 16.3797V16.3797L34.2466 18.0723ZM30.2672 14.535L31.6546 11.6341H31.6546L30.2672 14.535ZM15.676 15.3088L16.9892 18.2442L17.0064 18.2364L17.0235 18.2285L15.676 15.3088ZM5.50637 21.0569L2.59739 22.4274L4.16635 25.7575L7.25537 23.7553L5.50637 21.0569ZM0.089951 9.56078L-1.89677 7.03223L-3.91061 8.61454L-2.81903 10.9314L0.089951 9.56078ZM12.2493 2.37573L13.4148 5.37277L13.4148 5.37277L12.2493 2.37573ZM39.1103 2.92843L37.736 5.83564L37.7577 5.84593L37.7796 5.85588L39.1103 2.92843ZM48.6167 10.9978L45.9154 12.7424L45.9238 12.7554L45.9323 12.7683L48.6167 10.9978ZM48.9483 34.1005L46.2015 32.4285L46.1881 32.4505L46.175 32.4727L48.9483 34.1005ZM38.9998 45.2649L36.8849 42.8425L36.8719 42.8539L36.8589 42.8655L38.9998 45.2649ZM20.5397 61.7353L18.3989 59.3358L12.1054 64.951H20.5397V61.7353ZM53.1488 61.7353H56.3645V58.5196H53.1488V61.7353ZM53.1488 75V78.2157H56.3645V75H53.1488ZM3.30564 75V61.7353H-3.12574V75H3.30564ZM2.26327 64.1054L31.5562 37.2444L27.2095 32.5042L-2.08337 59.3652L2.26327 64.1054ZM31.4889 37.3043C33.9096 35.2064 35.8097 32.9694 37.0122 30.5643L31.2598 27.6881C30.5464 29.1151 29.2776 30.7101 27.2768 32.4442L31.4889 37.3043ZM36.9674 30.6508C38.194 28.3728 38.8993 26.0092 38.8993 23.5993H32.4679C32.4679 24.7266 32.1415 26.0476 31.3047 27.6017L36.9674 30.6508ZM38.8993 23.5993C38.8993 20.9698 38.3048 18.5186 36.9808 16.3797L31.5124 19.7649C32.1043 20.7211 32.4679 21.9545 32.4679 23.5993H38.8993ZM36.9808 16.3797C35.6879 14.2912 33.8859 12.7012 31.6546 11.6341L28.8797 17.436C30.0382 17.9901 30.8892 18.7583 31.5124 19.7649L36.9808 16.3797ZM31.6546 11.6341C29.4305 10.5704 26.9067 10.1034 24.1875 10.1034V16.5348C26.1847 16.5348 27.714 16.8785 28.8797 17.436L31.6546 11.6341ZM24.1875 10.1034C20.8647 10.1034 17.5697 10.8931 14.3284 12.3891L17.0235 18.2285C19.5303 17.0716 21.9097 16.5348 24.1875 16.5348V10.1034ZM14.3628 12.3735C11.3532 13.7199 7.80949 15.732 3.75738 18.3584L7.25537 23.7553C11.1621 21.2232 14.3981 19.4033 16.9892 18.2442L14.3628 12.3735ZM8.41535 19.6863L2.99893 8.19021L-2.81903 10.9314L2.59739 22.4274L8.41535 19.6863ZM2.07667 12.0893C6.00906 8.9996 9.78924 6.7827 13.4148 5.37277L11.0838 -0.6213C6.75047 1.06386 2.42444 3.63699 -1.89677 7.03223L2.07667 12.0893ZM13.4148 5.37277C16.9972 3.9796 20.8734 3.27009 25.0718 3.27009V-3.16128C20.1323 -3.16128 15.4601 -2.32323 11.0837 -0.6213L13.4148 5.37277ZM25.0718 3.27009C29.9888 3.27009 34.1843 4.15668 37.736 5.83564L40.4846 0.0212173C35.93 -2.13185 30.7666 -3.16128 25.0718 -3.16128V3.27009ZM37.7796 5.85588C41.3057 7.45864 43.9846 9.7528 45.9154 12.7424L51.318 9.2532C48.6798 5.16827 45.0211 2.08285 40.441 0.000976562L37.7796 5.85588ZM45.9323 12.7683C47.8088 15.6134 48.8277 19.1698 48.8277 23.5993H55.2591C55.2591 18.1539 53.9935 13.3093 51.301 9.22725L45.9323 12.7683ZM48.8277 23.5993C48.8277 26.5629 47.9895 29.4909 46.2015 32.4285L51.6951 35.7725C54.0338 31.9303 55.2591 27.8575 55.2591 23.5993H48.8277ZM46.175 32.4727C44.4309 35.4443 41.3973 38.9031 36.8849 42.8425L41.1146 47.6874C45.8875 43.5206 49.4863 39.5365 51.7215 35.7283L46.175 32.4727ZM36.8589 42.8655L18.3989 59.3358L22.6805 64.1348L41.1406 47.6644L36.8589 42.8655ZM20.5397 64.951H53.1488V58.5196H20.5397V64.951ZM49.9331 61.7353V75H56.3645V61.7353H49.9331ZM53.1488 71.7843H0.089951V78.2157H53.1488V71.7843Z" fill="url(#paint0_linear_344_112)"/>
<defs>
<linearGradient id="paint0_linear_344_112" x1="27.5" y1="-25" x2="27.5" y2="82.5104" gradientUnits="userSpaceOnUse">
<stop offset="0.6875" stop-color="#E0623F"/>
<stop offset="0.933187" stop-color="#E0623F" stop-opacity="0"/>
</linearGradient>
</defs>
</svg>
