<svg width="56" height="77" viewBox="0 0 56 77" fill="none" xmlns="http://www.w3.org/2000/svg">
<path d="M12.6914 73.6735L11.5844 76.6927L11.5924 76.6956L11.6005 76.6985L12.6914 73.6735ZM0.089951 66.599L-2.81903 65.2284L-3.91614 67.557L-1.88429 69.1373L0.089951 66.599ZM5.50637 55.1029L7.32398 52.4502L4.20755 50.3149L2.59739 53.7324L5.50637 55.1029ZM16.7814 61.0721L15.7078 64.1032L15.7454 64.1165L15.7832 64.1289L16.7814 61.0721ZM35.573 60.2983L33.657 57.7158L35.573 60.2983ZM35.573 45.8176L33.6045 48.3604L33.6305 48.3805L33.657 48.4002L35.573 45.8176ZM16.3392 43.1647H13.1235V46.3804H16.3392V43.1647ZM16.3392 30.7843V27.5686H13.1235V30.7843H16.3392ZM34.6887 28.5735L36.5144 31.2207H36.5144L34.6887 28.5735ZM34.6887 15.5299L32.8631 18.1771L32.8945 18.1988L32.9264 18.2197L34.6887 15.5299ZM17.6657 15.1983L18.7221 18.2355L18.7514 18.2253L18.7804 18.2146L17.6657 15.1983ZM6.61176 21.0569L3.70279 22.4274L5.31294 25.8449L8.42937 23.7096L6.61176 21.0569ZM1.19534 9.56078L-0.78527 7.02744L-2.80792 8.60879L-1.71364 10.9314L1.19534 9.56078ZM13.5757 2.48627L14.6874 5.50369L14.7018 5.49838L14.7162 5.49293L13.5757 2.48627ZM41.1 2.70735L39.8139 5.65465L39.846 5.66864L39.8783 5.68192L41.1 2.70735ZM50.7169 9.8924L48.1297 11.802L48.1442 11.8218L48.1591 11.8412L50.7169 9.8924ZM50.938 30.6738L48.4402 28.6485L50.938 30.6738ZM41.7632 36.9745L40.6279 33.9659L32.4213 37.0627L40.6849 40.004L41.7632 36.9745ZM51.8223 43.8279L49.2873 45.8065L49.2992 45.8217L49.3113 45.8368L51.8223 43.8279ZM51.8223 65.6042L54.4229 67.4955L54.433 67.4817L54.4429 67.4677L51.8223 65.6042ZM41.8738 73.3419L43.1466 76.295L43.168 76.2858L43.1892 76.2763L41.8738 73.3419ZM26.7299 72.8897C22.2314 72.8897 17.9215 72.1413 13.7824 70.6486L11.6005 76.6985C16.4519 78.4482 21.501 79.3211 26.7299 79.3211V72.8897ZM13.7984 70.6544C9.71034 69.1554 5.79963 66.9661 2.06419 64.0607L-1.88429 69.1373C2.33909 72.4222 6.82937 74.9492 11.5844 76.6927L13.7984 70.6544ZM2.99893 67.9696L8.41535 56.4735L2.59739 53.7324L-2.81903 65.2284L2.99893 67.9696ZM3.68877 57.7557C7.83673 60.5978 11.8447 62.7351 15.7078 64.1032L17.8549 58.0409C14.6436 56.9035 11.1348 55.0614 7.32398 52.4502L3.68877 57.7557ZM15.7832 64.1289C19.6373 65.3874 23.2953 66.0564 26.7299 66.0564V59.625C24.1217 59.625 21.1473 59.1149 17.7795 58.0152L15.7832 64.1289ZM26.7299 66.0564C30.8434 66.0564 34.5167 65.0861 37.4891 62.8808L33.657 57.7158C32.0604 58.9003 29.8383 59.625 26.7299 59.625V66.0564ZM37.4891 62.8808C40.6929 60.5038 42.2154 57.0558 42.2154 53.0027H35.7841C35.7841 55.2872 35.0222 56.7029 33.657 57.7158L37.4891 62.8808ZM42.2154 53.0027C42.2154 48.9936 40.6712 45.5961 37.4891 43.2351L33.657 48.4002C35.0438 49.4291 35.7841 50.8216 35.7841 53.0027H42.2154ZM37.5416 43.2749C34.5653 40.9707 30.872 39.949 26.7299 39.949V46.3804C29.8097 46.3804 32.0119 47.1274 33.6045 48.3604L37.5416 43.2749ZM26.7299 39.949H16.3392V46.3804H26.7299V39.949ZM19.5549 43.1647V30.7843H13.1235V43.1647H19.5549ZM16.3392 34H26.7299V27.5686H16.3392V34ZM26.7299 34C30.4051 34 33.7318 33.1397 36.5144 31.2207L32.8631 25.9263C31.3715 26.955 29.3923 27.5686 26.7299 27.5686V34ZM36.5144 31.2207C39.6255 29.0751 41.1101 25.8505 41.1101 22.0517H34.6787C34.6787 24.0009 34.0262 25.1242 32.8631 25.9263L36.5144 31.2207ZM41.1101 22.0517C41.1101 18.2142 39.6466 14.9338 36.451 12.8401L32.9264 18.2197C34.0051 18.9264 34.6787 19.9938 34.6787 22.0517H41.1101ZM36.5144 12.8827C33.7318 10.9637 30.405 10.1034 26.7299 10.1034V16.5348C29.3923 16.5348 31.3715 17.1484 32.8631 18.1771L36.5144 12.8827ZM26.7299 10.1034C23.5862 10.1034 20.1771 10.8419 16.551 12.182L18.7804 18.2146C21.934 17.0491 24.5677 16.5348 26.7299 16.5348V10.1034ZM16.6093 12.1611C12.8754 13.4598 8.93391 15.5676 4.79416 18.4041L8.42937 23.7096C12.2484 21.0928 15.6762 19.2949 18.7221 18.2355L16.6093 12.1611ZM9.52074 19.6863L4.10432 8.19021L-1.71364 10.9314L3.70279 22.4274L9.52074 19.6863ZM3.17596 12.0941C7.00474 9.10071 10.8427 6.92018 14.6874 5.50369L12.4641 -0.531145C7.90783 1.14746 3.49216 3.68327 -0.78527 7.02744L3.17596 12.0941ZM14.7162 5.49293C18.6323 4.0075 22.631 3.27009 26.7299 3.27009V-3.16128C21.8383 -3.16128 17.0675 -2.27744 12.4353 -0.520386L14.7162 5.49293ZM26.7299 3.27009C31.9214 3.27009 36.2543 4.10137 39.8139 5.65465L42.3861 -0.239954C37.8395 -2.22392 32.5924 -3.16128 26.7299 -3.16128V3.27009ZM39.8783 5.68192C43.5494 7.18969 46.2471 9.25142 48.1297 11.802L53.3042 7.98275C50.6178 4.34318 46.9042 1.61488 42.3217 -0.267225L39.8783 5.68192ZM48.1591 11.8412C50.0637 14.3411 51.0385 17.257 51.0385 20.7252H57.4699C57.4699 15.9399 56.0865 11.6339 53.2748 7.94355L48.1591 11.8412ZM51.0385 20.7252C51.0385 23.9818 50.1338 26.5597 48.4402 28.6485L53.4358 32.699C56.1637 29.3346 57.4699 25.2801 57.4699 20.7252H51.0385ZM48.4402 28.6485C46.651 30.8552 44.1017 32.655 40.6279 33.9659L42.8986 39.9831C47.2362 38.3463 50.8034 35.9456 53.4358 32.699L48.4402 28.6485ZM40.6849 40.004C44.5758 41.3889 47.3756 43.357 49.2873 45.8065L54.3573 41.8494C51.5527 38.256 47.6464 35.6552 42.8415 33.945L40.6849 40.004ZM49.3113 45.8368C51.1785 48.1709 52.1439 50.9486 52.1439 54.3292H58.5752C58.5752 49.6035 57.1824 45.3805 54.3333 41.8191L49.3113 45.8368ZM52.1439 54.3292C52.1439 57.8848 51.1596 60.9872 49.2017 63.7406L54.4429 67.4677C57.2013 63.5888 58.5752 59.1746 58.5752 54.3292H52.1439ZM49.2217 63.7128C47.2454 66.4302 44.4074 68.6821 40.5584 70.4076L43.1892 76.2763C47.8885 74.1696 51.6829 71.2631 54.4229 67.4955L49.2217 63.7128ZM40.6009 70.3889C36.816 72.0203 32.2201 72.8897 26.7299 72.8897V79.3211C32.8831 79.3211 38.3832 78.3482 43.1466 76.295L40.6009 70.3889Z" fill="url(#paint0_linear_344_111)"/>
<defs>
<linearGradient id="paint0_linear_344_111" x1="27.5" y1="-25" x2="27.5" y2="78.8966" gradientUnits="userSpaceOnUse">
<stop offset="0.6875" stop-color="#E0623F"/>
<stop offset="0.933187" stop-color="#E0623F" stop-opacity="0"/>
</linearGradient>
</defs>
</svg>
