<svg width="61" height="74" viewBox="0 0 61 74" fill="none" xmlns="http://www.w3.org/2000/svg">
<path d="M35.4625 74H32.2468V77.2157H35.4625V74ZM35.4625 58.414H38.6782V55.1983H35.4625V58.414ZM0.089951 58.414H-3.12574V61.6297H0.089951V58.414ZM0.089951 43.1596L-2.42486 41.1555L-3.12574 42.035V43.1596H0.089951ZM34.3571 0.1598V-3.05589H32.8078L31.8423 -1.84429L34.3571 0.1598ZM50.938 0.1598H54.1537V-3.05589H50.938V0.1598ZM50.938 45.8125H47.7223V49.0282H50.938V45.8125ZM60.6654 45.8125H63.8811V42.5968H60.6654V45.8125ZM60.6654 58.414V61.6297H63.8811V58.414H60.6654ZM50.938 58.414V55.1983H47.7223V58.414H50.938ZM50.938 74V77.2157H54.1537V74H50.938ZM13.5757 45.8125L11.0284 43.8499L7.03892 49.0282H13.5757V45.8125ZM35.4625 45.8125V49.0282H38.6782V45.8125H35.4625ZM35.4625 17.4039H38.6782V7.96105L32.9151 15.4414L35.4625 17.4039ZM38.6782 74V58.414H32.2468V74H38.6782ZM35.4625 55.1983H0.089951V61.6297H35.4625V55.1983ZM3.30564 58.414V43.1596H-3.12574V58.414H3.30564ZM2.60476 45.1637L36.8719 2.16389L31.8423 -1.84429L-2.42486 41.1555L2.60476 45.1637ZM34.3571 3.37549H50.938V-3.05589H34.3571V3.37549ZM47.7223 0.1598V45.8125H54.1537V0.1598H47.7223ZM50.938 49.0282H60.6654V42.5968H50.938V49.0282ZM57.4498 45.8125V58.414H63.8811V45.8125H57.4498ZM60.6654 55.1983H50.938V61.6297H60.6654V55.1983ZM47.7223 58.414V74H54.1537V58.414H47.7223ZM50.938 70.7843H35.4625V77.2157H50.938V70.7843ZM13.5757 49.0282H35.4625V42.5968H13.5757V49.0282ZM38.6782 45.8125V17.4039H32.2468V45.8125H38.6782ZM32.9151 15.4414L11.0284 43.8499L16.1231 47.7751L38.0099 19.3665L32.9151 15.4414Z" fill="url(#paint0_linear_344_113)"/>
<defs>
<linearGradient id="paint0_linear_344_113" x1="27.5" y1="-26" x2="27.5" y2="77.8966" gradientUnits="userSpaceOnUse">
<stop offset="0.6875" stop-color="#E0623F"/>
<stop offset="0.933187" stop-color="#E0623F" stop-opacity="0"/>
</linearGradient>
</defs>
</svg>
