<svg width="29" height="29" viewBox="0 0 29 29" fill="none" xmlns="http://www.w3.org/2000/svg">
<path id="vector" d="M14.5608 0C6.60171 0 0.124419 6.4467 0.121613 14.3695C0.119742 16.9031 0.785807 19.3759 2.04871 21.5538L0 29L7.65506 27.0019C9.78443 28.1529 12.1521 28.7533 14.5552 28.7516H14.5608C22.5199 28.7516 28.9972 22.3039 29 14.3811C29.0019 10.5434 27.5014 6.931 24.7744 4.21563C22.0484 1.4993 18.4234 0.000966667 14.5608 0ZM14.5608 26.3243H14.5561C12.4026 26.3243 10.2903 25.7481 8.44742 24.6597L8.00774 24.4006L3.4669 25.5857L4.67929 21.1777L4.39397 20.7263C3.19552 18.8376 2.55755 16.628 2.55855 14.3695C2.56135 7.7836 7.946 2.4273 14.5655 2.4273C17.7705 2.42827 20.7836 3.67237 23.0503 5.92953C25.317 8.1867 26.564 11.1882 26.5621 14.3801C26.5593 20.966 21.1756 26.3243 14.5599 26.3243H14.5608ZM21.1438 17.3778C20.7827 17.1989 19.009 16.3299 18.6779 16.2091C18.3476 16.0902 18.1072 16.0283 17.8668 16.3879C17.6273 16.7475 16.9351 17.5566 16.7255 17.7954C16.5141 18.0351 16.3036 18.0641 15.9425 17.8853C15.5814 17.7055 14.4186 17.3265 13.0416 16.1027C11.9686 15.1515 11.2445 13.9761 11.034 13.6155C10.8235 13.2569 11.0116 13.0626 11.1921 12.8837C11.354 12.7242 11.5532 12.4652 11.7328 12.2554C11.9125 12.0456 11.9723 11.8958 12.0939 11.6561C12.2137 11.4173 12.1538 11.2066 12.0631 11.0277C11.9723 10.847 11.252 9.0799 10.9498 8.36167C10.658 7.6618 10.3605 7.75557 10.1388 7.74397C9.92829 7.7343 9.68881 7.7314 9.44652 7.7314C9.20797 7.7314 8.816 7.8213 8.48484 8.1809C8.15461 8.5405 7.22193 9.40857 7.22193 11.1756C7.22193 12.9437 8.51477 14.6508 8.69532 14.8905C8.87587 15.1293 11.2398 18.7572 14.8592 20.3135C15.7199 20.6818 16.3915 20.9032 16.9164 21.0695C17.7807 21.343 18.5675 21.3034 19.1886 21.2116C19.8809 21.1081 21.3234 20.3435 21.6228 19.5054C21.924 18.6673 21.924 17.9481 21.8342 17.7983C21.7463 17.6484 21.5049 17.5585 21.1438 17.3778Z" fill="#E0623F"/>
</svg>
