<svg width="66" height="40" viewBox="0 0 66 40" fill="none" xmlns="http://www.w3.org/2000/svg">
<path id="Vector 5" d="M10.4671 32.8776C10.5745 32.3945 9.97508 31.9606 9.66196 31.804L8.45424 32.4079H7.58197L7.0452 31.804V31.1331L7.58197 30.5963L3.95873 22.142H3.28776L2.68388 21.5382V20.5988L4.02583 19.8607L4.7639 19.4582L4.83099 18.9214L4.5626 18.5859L4.02583 18.3175H3.28776L2.48259 17.982V17.5123H1.00646L0 16.3046L0 14.9627L1.00646 14.0233L0.805165 13.7549L0.872262 13.151L1.54323 12.3459L3.48905 11.2052L7.17939 9.52778L12.1446 7.71616L13.2181 7.24648L14.4259 7.17939L15.1639 7.44777L15.2981 7.98455L16.3717 7.91745L16.6401 8.05165L17.3782 8.72262L17.8478 9.39359V10.1988L16.8414 11.4736L16.9756 11.6078V12.2788L16.7072 12.6813L16.2375 13.4865V14.1575L16.8414 14.6272L18.1162 13.822H18.8543L19.5253 14.493L19.5253 15.1639L19.0556 15.8349L19.6595 16.7743L20.3975 16.1704H20.8672L21.2698 16.4388L21.8737 15.8349H22.4775L22.8801 16.2375L27.5098 15.0968L27.5098 14.6272L27.7782 14.4259H29.2543L36.3666 11.0039L40.5267 8.85681L47.1693 5.63615L53.0067 3.22066L60.5216 0.805161V0.33548L61.0584 -3.8147e-06H62.199L62.6687 0.469677H64.2119H64.95L65.8223 1.27484V2.2813L64.279 4.02582V4.4955L63.0042 5.63615L62.6687 5.23357L59.3809 7.04519L54.8183 9.32649L48.7796 11.742L40.7279 14.5601L30.6634 18.1833L29.8582 19.1227H29.3214L29.1201 18.7872L24.893 21.404V22.0078L24.5575 22.2762L23.6182 22.2762V22.4775L23.3498 22.9472L22.7459 23.2156H22.2091L22.7459 24.2891H23.1485L23.4169 24.4233L23.8195 24.8259V25.4298L23.6182 26.0337L22.5446 26.5034L21.9408 26.7717L21.6724 27.4427L21.9408 27.8453L22.6117 28.2479H23.6182L24.0879 28.5834V28.9859L25.4969 29.053L26.1679 29.7911L26.5034 30.2608L26.5034 31.3343L26.3692 31.6698L25.4969 32.475L25.6982 32.6763V33.3473L25.0943 34.0182L22.6117 35.4944L18.1162 37.5073C16.3493 38.0888 12.6545 39.2384 12.0104 39.1847C11.3663 39.131 11.3841 38.6256 11.4736 38.3795C11.2947 38.3795 10.7087 38.3661 9.79616 38.3124C8.88364 38.2588 8.70024 36.8587 8.7226 36.1653L9.79616 34.9576L9.59486 34.0182C9.84089 33.8393 10.3598 33.3607 10.4671 32.8776Z" fill="#E0623F"/>
</svg>
