<svg width="43" height="31" viewBox="0 0 43 31" fill="none" xmlns="http://www.w3.org/2000/svg">
<path id="Vector" d="M31.175 15.05C34.142 15.05 36.5285 12.642 36.5285 9.675C36.5285 6.708 34.142 4.3 31.175 4.3C28.208 4.3 25.8 6.708 25.8 9.675C25.8 12.642 28.208 15.05 31.175 15.05ZM15.05 12.9C18.619 12.9 21.4785 10.019 21.4785 6.45C21.4785 2.881 18.619 0 15.05 0C11.481 0 8.6 2.881 8.6 6.45C8.6 10.019 11.481 12.9 15.05 12.9ZM31.175 19.35C27.2405 19.35 19.35 21.328 19.35 25.2625V30.1H43V25.2625C43 21.328 35.1095 19.35 31.175 19.35ZM15.05 17.2C10.0405 17.2 0 19.7155 0 24.725V30.1H15.05V25.2625C15.05 23.435 15.7595 20.2315 20.1455 17.802C18.275 17.415 16.469 17.2 15.05 17.2Z" fill="#E0623F"/>
</svg>
