<svg width="70" height="842" viewBox="0 0 70 842" fill="none" xmlns="http://www.w3.org/2000/svg">
<circle cx="35" cy="9" r="9" fill="#806D61"/>
<circle cx="35" cy="833" r="9" fill="#806D61"/>
<path d="M35 839.5V800" stroke="#806D61" stroke-width="4"/>
<circle cx="35.5933" cy="74.4068" r="34.4068" fill="#F4EEE8"/>
<circle cx="35.5936" cy="74.4067" r="29.661" fill="#E0623F"/>
<circle cx="35.5933" cy="74.4068" r="20.1695" fill="white"/>
<path d="M34.5727 86V70.49L31.0327 72.32L29.5627 69.14L35.8627 65.96H38.9227V86H34.5727Z" fill="#E0623F"/>
<circle cx="35.5933" cy="212.407" r="34.4068" fill="#F4EEE8"/>
<circle cx="35.5936" cy="212.407" r="29.661" fill="#E0623F"/>
<circle cx="35.5933" cy="212.407" r="20.1695" fill="white"/>
<path d="M28.8043 222V218.4L36.7543 211.11C37.3543 210.59 37.7843 210.07 38.0443 209.55C38.3243 209.03 38.4643 208.53 38.4643 208.05C38.4643 207.47 38.3343 206.97 38.0743 206.55C37.8143 206.13 37.4543 205.81 36.9943 205.59C36.5343 205.37 35.9843 205.26 35.3443 205.26C34.5843 205.26 33.8143 205.44 33.0343 205.8C32.2743 206.14 31.3543 206.66 30.2743 207.36L28.8043 204.24C29.9243 203.36 31.0243 202.71 32.1043 202.29C33.1843 201.87 34.3443 201.66 35.5843 201.66C37.0243 201.66 38.2943 201.92 39.3943 202.44C40.4943 202.94 41.3543 203.67 41.9743 204.63C42.5943 205.57 42.9043 206.71 42.9043 208.05C42.9043 209.03 42.6243 209.98 42.0643 210.9C41.5243 211.82 40.6243 212.83 39.3643 213.93L34.3543 218.4H43.2043V222H28.8043Z" fill="#E0623F"/>
<circle cx="35.5933" cy="350.407" r="34.4068" fill="#F4EEE8"/>
<circle cx="35.5936" cy="350.407" r="29.661" fill="#E0623F"/>
<circle cx="35.5933" cy="350.407" r="20.1695" fill="white"/>
<path d="M34.34 361.3C33.02 361.3 31.75 361.08 30.53 360.64C29.33 360.2 28.19 359.56 27.11 358.72L28.58 355.6C29.66 356.34 30.68 356.88 31.64 357.22C32.62 357.54 33.52 357.7 34.34 357.7C35.32 357.7 36.12 357.47 36.74 357.01C37.36 356.55 37.67 355.89 37.67 355.03C37.67 354.19 37.36 353.54 36.74 353.08C36.12 352.6 35.32 352.36 34.34 352.36H31.52V349H34.34C35.2 349 35.92 348.8 36.5 348.4C37.08 348 37.37 347.41 37.37 346.63C37.37 345.83 37.08 345.24 36.5 344.86C35.92 344.46 35.2 344.26 34.34 344.26C33.62 344.26 32.8 344.43 31.88 344.77C30.96 345.09 29.96 345.62 28.88 346.36L27.41 343.24C28.51 342.38 29.63 341.74 30.77 341.32C31.93 340.88 33.12 340.66 34.34 340.66C35.84 340.66 37.14 340.9 38.24 341.38C39.36 341.84 40.23 342.49 40.85 343.33C41.49 344.17 41.81 345.15 41.81 346.27C41.81 347.33 41.51 348.23 40.91 348.97C40.31 349.71 39.48 350.28 38.42 350.68C39.6 351.1 40.51 351.72 41.15 352.54C41.79 353.34 42.11 354.29 42.11 355.39C42.11 356.53 41.79 357.55 41.15 358.45C40.51 359.33 39.61 360.03 38.45 360.55C37.29 361.05 35.92 361.3 34.34 361.3Z" fill="#E0623F"/>
<circle cx="35.5933" cy="488.407" r="34.4068" fill="#F4EEE8"/>
<circle cx="35.5936" cy="488.407" r="29.661" fill="#E0623F"/>
<circle cx="35.5933" cy="488.407" r="20.1695" fill="white"/>
<path d="M36.3789 499V494.77H26.7789V490.63L36.0789 478.96H40.5789V491.35H43.2189V494.77H40.5789V499H36.3789ZM30.4389 491.35H36.3789V483.64L30.4389 491.35Z" fill="#E0623F"/>
<circle cx="35.5933" cy="626.407" r="34.4068" fill="#F4EEE8"/>
<circle cx="35.5936" cy="626.407" r="29.661" fill="#E0623F"/>
<circle cx="35.5933" cy="626.407" r="20.1695" fill="white"/>
<path d="M35.58 637.3C34.46 637.3 33.47 637.2 32.61 637C31.75 636.82 30.96 636.54 30.24 636.16C29.54 635.76 28.83 635.28 28.11 634.72L29.61 631.63C30.69 632.37 31.67 632.9 32.55 633.22C33.45 633.54 34.36 633.7 35.28 633.7C36.4 633.7 37.28 633.41 37.92 632.83C38.58 632.23 38.91 631.44 38.91 630.46C38.91 629.5 38.58 628.72 37.92 628.12C37.28 627.5 36.4 627.19 35.28 627.19C34.46 627.19 33.79 627.36 33.27 627.7C32.75 628.02 32.38 628.46 32.16 629.02L28.44 628.36L30.51 616.66H41.85V620.26H33.81L32.91 624.88C33.37 624.58 33.88 624.35 34.44 624.19C35.02 624.01 35.65 623.92 36.33 623.92C37.81 623.92 39.07 624.2 40.11 624.76C41.15 625.3 41.95 626.05 42.51 627.01C43.07 627.97 43.35 629.1 43.35 630.4C43.35 631.7 43.04 632.87 42.42 633.91C41.8 634.95 40.91 635.78 39.75 636.4C38.59 637 37.2 637.3 35.58 637.3Z" fill="#E0623F"/>
<circle cx="35.5933" cy="764.407" r="34.4068" fill="#F4EEE8"/>
<circle cx="35.5936" cy="764.407" r="29.661" fill="#E0623F"/>
<circle cx="35.5933" cy="764.407" r="20.1695" fill="white"/>
<path d="M35.7954 774.3C34.1154 774.3 32.6454 773.97 31.3854 773.31C30.1454 772.63 29.1754 771.61 28.4754 770.25C27.7754 768.89 27.4254 767.2 27.4254 765.18C27.4254 762.88 27.7654 760.87 28.4454 759.15C29.1254 757.41 30.1354 756.06 31.4754 755.1C32.8354 754.14 34.5354 753.66 36.5754 753.66C37.8954 753.66 39.1054 753.88 40.2054 754.32C41.3254 754.76 42.2654 755.4 43.0254 756.24L41.6154 759.09C40.7754 758.41 39.9754 757.94 39.2154 757.68C38.4754 757.4 37.7454 757.26 37.0254 757.26C36.1854 757.26 35.3754 757.44 34.5954 757.8C33.8154 758.16 33.1754 758.75 32.6754 759.57C32.1954 760.39 31.9254 761.5 31.8654 762.9C32.3454 762.3 32.9854 761.82 33.7854 761.46C34.5854 761.1 35.5054 760.92 36.5454 760.92C38.0254 760.92 39.2854 761.2 40.3254 761.76C41.3654 762.3 42.1654 763.05 42.7254 764.01C43.2854 764.97 43.5654 766.1 43.5654 767.4C43.5654 768.7 43.2554 769.87 42.6354 770.91C42.0154 771.95 41.1254 772.78 39.9654 773.4C38.8054 774 37.4154 774.3 35.7954 774.3ZM35.4954 770.7C36.6154 770.7 37.4954 770.41 38.1354 769.83C38.7954 769.23 39.1254 768.44 39.1254 767.46C39.1254 766.5 38.7954 765.72 38.1354 765.12C37.4954 764.5 36.6154 764.19 35.4954 764.19C34.3754 764.19 33.4854 764.49 32.8254 765.09C32.1854 765.67 31.8654 766.46 31.8654 767.46C32.0454 768.42 32.4254 769.2 33.0054 769.8C33.5854 770.4 34.4154 770.7 35.4954 770.7Z" fill="#E0623F"/>
</svg>
