<svg width="37" height="30" viewBox="0 0 37 30" fill="none" xmlns="http://www.w3.org/2000/svg">
<g id="Group 84">
<path id="Vector" d="M18.0509 5.59302C15.0992 5.59302 12.7119 7.98031 12.7119 10.932C12.7119 14.9362 18.0509 20.8473 18.0509 20.8473C18.0509 20.8473 23.3899 14.9362 23.3899 10.932C23.3899 7.98031 21.0026 5.59302 18.0509 5.59302ZM18.0509 12.8388C16.9984 12.8388 16.1441 11.9845 16.1441 10.932C16.1441 9.87946 16.9984 9.02522 18.0509 9.02522C19.1034 9.02522 19.9577 9.87946 19.9577 10.932C19.9577 11.9845 19.1034 12.8388 18.0509 12.8388Z" fill="#E0623F"/>
<path id="Vector_2" d="M33.3333 0H3.33333C1.48333 0 0 1.48333 0 3.33333V23.3333C0 25.1667 1.48333 26.6667 3.33333 26.6667H11.6667V30H25V26.6667H33.3333C35.1667 26.6667 36.65 25.1667 36.65 23.3333L36.6667 3.33333C36.6667 1.48333 35.1667 0 33.3333 0ZM33.3333 23.3333H3.33333V3.33333H33.3333V23.3333Z" fill="#E0623F"/>
</g>
</svg>
