<svg width="21" height="22" viewBox="0 0 21 22" fill="none" xmlns="http://www.w3.org/2000/svg">
<path id="Vector" d="M17.5834 3.76137C16.6427 2.81588 15.5222 2.06622 14.2872 1.55612C13.0523 1.04603 11.7276 0.785709 10.3904 0.790344C4.78791 0.790344 0.221737 5.33367 0.221737 10.9082C0.221737 12.6949 0.693745 14.4305 1.5762 15.962L0.139648 21.2098L5.5267 19.8008C7.01455 20.6074 8.68711 21.0362 10.3904 21.0362C15.993 21.0362 20.5591 16.4929 20.5591 10.9184C20.5591 8.21281 19.5023 5.67059 17.5834 3.76137ZM10.3904 19.321C8.8718 19.321 7.38395 18.9126 6.0808 18.1469L5.77297 17.9631L2.57152 18.8003L3.42319 15.6965L3.21796 15.38C2.37425 14.0395 1.92624 12.4899 1.92507 10.9082C1.92507 6.27296 5.72166 2.49537 10.3802 2.49537C12.6376 2.49537 14.7616 3.3734 16.3521 4.96612C17.1396 5.7461 17.7637 6.67386 18.1882 7.69561C18.6127 8.71736 18.8292 9.81278 18.825 10.9184C18.8455 15.5536 15.049 19.321 10.3904 19.321ZM15.0284 13.0318C14.7719 12.9093 13.5201 12.2967 13.2943 12.2048C13.0583 12.1231 12.8941 12.0823 12.7197 12.3273C12.5453 12.5826 12.063 13.1543 11.9193 13.3177C11.7757 13.4912 11.6218 13.5117 11.3652 13.3789C11.1087 13.2564 10.2878 12.9807 9.32329 12.1231C8.56397 11.4493 8.06118 10.6223 7.90726 10.3671C7.76361 10.1118 7.88674 9.97909 8.02014 9.84636C8.13301 9.73406 8.27666 9.55028 8.39979 9.40734C8.52293 9.26441 8.57423 9.1521 8.65632 8.98875C8.73841 8.81518 8.69736 8.67225 8.6358 8.54973C8.57423 8.42721 8.06118 7.18163 7.85596 6.67114C7.65074 6.18108 7.43526 6.24233 7.28134 6.23212H6.78881C6.61437 6.23212 6.34758 6.29338 6.11158 6.54862C5.88584 6.80387 5.22913 7.41645 5.22913 8.66204C5.22913 9.90762 6.14236 11.1124 6.2655 11.2757C6.38863 11.4493 8.06118 14.0017 10.6059 15.0942C11.2113 15.3596 11.6833 15.5128 12.0527 15.6251C12.6581 15.819 13.2122 15.7884 13.6535 15.7272C14.146 15.6557 15.1618 15.1146 15.367 14.5224C15.5825 13.9302 15.5825 13.43 15.5107 13.3177C15.4389 13.2054 15.285 13.1543 15.0284 13.0318Z" fill="#F5F5F5"/>
</svg>
